<?xml version="1.0" encoding="utf-8"?>
<!-- Generator: Adobe Illustrator 25.3.1, SVG Export Plug-In . SVG Version: 6.00 Build 0)  -->
<svg version="1.1" id="Warstwa_1" xmlns="http://www.w3.org/2000/svg" xmlns:xlink="http://www.w3.org/1999/xlink" x="0px" y="0px"
	 viewBox="0 0 981 226.9" style="enable-background:new 0 0 981 226.9;" xml:space="preserve">
<style type="text/css">
	.st0{fill:#FFFFFF;}
	.st1{fill:#92C9F1;}
	.st2{fill:#008ABB;}
	.st3{fill:#4DA9D9;}
</style>
<g>
	<path class="st0" d="M193.6,56.7h24.7v113.4h-25.2l-63.8-75.9v75.9h-24.4V56.7h25.2l63.5,75.6V56.7z"/>
	<path class="st0" d="M326.9,56.7h24.7v113.4h-25.2l-63.8-75.9v75.9h-24.4V56.7h25.2l63.5,75.6V56.7z"/>
	<path class="st0" d="M476.3,81.3h-80v19.8h64.4v24.6h-64.4v19.8h80v24.6H371.5V56.7h104.8V81.3z"/>
	<path class="st0" d="M609.5,109.5c0,12.8-10.6,23.3-23.5,23.3H585c8,9.5,16.7,19.5,24.6,29v8.3h-25.2L553,132.8l-32.5,0.2
		c0.3,0,0.5,0.3,0.5,0.9c0,0-0.3,0-0.5-0.2v36.4h-24.4V56.9h90c12.9,0,23.5,10.6,23.5,23.3V109.5z M520.5,108.2h64.3V81.3h-64.3
		V108.2z"/>
	<path class="st0" d="M742.8,90.7h-24.7v-9.5h-64.3v64.3h64.3v-17h-24.6V104h49.3v42.9c0,12.9-10.6,23.3-23.5,23.3h-66.6
		c-12.9,0-23.3-10.4-23.3-23.3V80c0-12.9,10.4-23.3,23.3-23.3h66.6c12.9,0,23.5,10.4,23.5,23.3V90.7z"/>
	<path class="st0" d="M852.8,56.7c12.8,0,23.3,10.4,23.3,23.3v66.8c0,12.9-10.6,23.3-23.3,23.3H786c-12.9,0-23.3-10.4-23.3-23.3V80
		c0-12.9,10.4-23.3,23.3-23.3H852.8z M787.1,145.6h64.3V81.3h-64.3V145.6z"/>
	
		<rect x="56.7" y="85.1" transform="matrix(-1 -1.224647e-16 1.224647e-16 -1 141.7834 198.4968)" class="st1" width="28.4" height="28.4"/>
	<rect x="896" y="141.8" class="st2" width="28.4" height="28.4"/>
	
		<rect x="56.7" y="113.4" transform="matrix(-1 -1.224647e-16 1.224647e-16 -1 141.7834 255.2101)" class="st3" width="28.4" height="28.4"/>
	
		<rect x="56.7" y="141.8" transform="matrix(-1 -1.224647e-16 1.224647e-16 -1 141.7834 311.9235)" class="st2" width="28.4" height="28.4"/>
	<rect x="56.7" y="56.7" class="st0" width="28.4" height="28.4"/>
</g>
</svg>
